<mxfile host="app.diagrams.net" modified="2024-06-11T04:06:02.504Z" agent="Mozilla/5.0 (Windows NT 10.0; Win64; x64) AppleWebKit/537.36 (KHTML, like Gecko) Chrome/125.0.0.0 Safari/537.36" etag="67FemshFIMC2Od_vFEh6" version="24.5.2" type="device">
  <diagram name="Page-1" id="e7e014a7-5840-1c2e-5031-d8a46d1fe8dd">
    <mxGraphModel dx="1760" dy="920" grid="1" gridSize="10" guides="1" tooltips="1" connect="1" arrows="1" fold="1" page="1" pageScale="1" pageWidth="1169" pageHeight="826" background="none" math="0" shadow="0">
      <root>
        <mxCell id="0" />
        <mxCell id="1" parent="0" />
        <mxCell id="2" value="Administrador" style="swimlane;whiteSpace=wrap;fillColor=#d5e8d4;strokeColor=#82b366;" parent="1" vertex="1">
          <mxGeometry x="102" y="20" width="280" height="802" as="geometry" />
        </mxCell>
        <mxCell id="eVJeflCza74l_O1Xs9eI-90" style="edgeStyle=orthogonalEdgeStyle;rounded=0;hachureGap=4;orthogonalLoop=1;jettySize=auto;html=1;exitX=0.5;exitY=1;exitDx=0;exitDy=0;entryX=0.5;entryY=0;entryDx=0;entryDy=0;fontFamily=Architects Daughter;fontSource=https%3A%2F%2Ffonts.googleapis.com%2Fcss%3Ffamily%3DArchitects%2BDaughter;" edge="1" parent="2" source="5" target="eVJeflCza74l_O1Xs9eI-66">
          <mxGeometry relative="1" as="geometry" />
        </mxCell>
        <mxCell id="5" value="" style="ellipse;shape=startState;fillColor=#000000;strokeColor=#ff0000;" parent="2" vertex="1">
          <mxGeometry x="125" y="40" width="30" height="30" as="geometry" />
        </mxCell>
        <mxCell id="eVJeflCza74l_O1Xs9eI-66" value="Inicia la sesión en el&#xa;sistema" style="" vertex="1" parent="2">
          <mxGeometry x="63.07000000000005" y="102" width="153.87" height="28" as="geometry" />
        </mxCell>
        <mxCell id="eVJeflCza74l_O1Xs9eI-89" style="edgeStyle=orthogonalEdgeStyle;rounded=0;hachureGap=4;orthogonalLoop=1;jettySize=auto;html=1;exitX=0.5;exitY=1;exitDx=0;exitDy=0;entryX=0.5;entryY=0;entryDx=0;entryDy=0;fontFamily=Architects Daughter;fontSource=https%3A%2F%2Ffonts.googleapis.com%2Fcss%3Ffamily%3DArchitects%2BDaughter;" edge="1" parent="2" source="eVJeflCza74l_O1Xs9eI-69" target="eVJeflCza74l_O1Xs9eI-79">
          <mxGeometry relative="1" as="geometry" />
        </mxCell>
        <mxCell id="eVJeflCza74l_O1Xs9eI-69" value="Navega al módulo de &#xa;contratos" style="" vertex="1" parent="2">
          <mxGeometry x="63.06000000000006" y="182" width="153.87" height="28" as="geometry" />
        </mxCell>
        <mxCell id="eVJeflCza74l_O1Xs9eI-79" value="Selecciona el contrato&#xa;a cerrar" style="" vertex="1" parent="2">
          <mxGeometry x="63.06000000000006" y="285" width="153.87" height="28" as="geometry" />
        </mxCell>
        <mxCell id="38" value="" style="ellipse;shape=endState;fillColor=#000000;strokeColor=#ff0000" parent="2" vertex="1">
          <mxGeometry x="125.01" y="762" width="30" height="30" as="geometry" />
        </mxCell>
        <mxCell id="eVJeflCza74l_O1Xs9eI-98" style="edgeStyle=orthogonalEdgeStyle;rounded=0;hachureGap=4;orthogonalLoop=1;jettySize=auto;html=1;exitX=0.5;exitY=1;exitDx=0;exitDy=0;entryX=0.5;entryY=0;entryDx=0;entryDy=0;fontFamily=Architects Daughter;fontSource=https%3A%2F%2Ffonts.googleapis.com%2Fcss%3Ffamily%3DArchitects%2BDaughter;" edge="1" parent="2" source="eVJeflCza74l_O1Xs9eI-95" target="38">
          <mxGeometry relative="1" as="geometry" />
        </mxCell>
        <mxCell id="eVJeflCza74l_O1Xs9eI-95" value="Cierra el contrato" style="" vertex="1" parent="2">
          <mxGeometry x="63.05999999999989" y="652" width="153.87" height="28" as="geometry" />
        </mxCell>
        <mxCell id="3" value="Módulo de contratos" style="swimlane;whiteSpace=wrap;fillColor=#dae8fc;strokeColor=#6c8ebf;" parent="1" vertex="1">
          <mxGeometry x="382" y="20" width="395.5" height="802" as="geometry" />
        </mxCell>
        <mxCell id="eVJeflCza74l_O1Xs9eI-78" style="edgeStyle=orthogonalEdgeStyle;rounded=0;hachureGap=4;orthogonalLoop=1;jettySize=auto;html=1;exitX=0.5;exitY=1;exitDx=0;exitDy=0;entryX=0.5;entryY=0;entryDx=0;entryDy=0;fontFamily=Architects Daughter;fontSource=https%3A%2F%2Ffonts.googleapis.com%2Fcss%3Ffamily%3DArchitects%2BDaughter;" edge="1" parent="3" source="eVJeflCza74l_O1Xs9eI-68" target="eVJeflCza74l_O1Xs9eI-70">
          <mxGeometry relative="1" as="geometry" />
        </mxCell>
        <mxCell id="eVJeflCza74l_O1Xs9eI-68" value="Verifica las credenciales" style="" vertex="1" parent="3">
          <mxGeometry x="75.50000000000006" y="102" width="153.87" height="28" as="geometry" />
        </mxCell>
        <mxCell id="eVJeflCza74l_O1Xs9eI-75" style="edgeStyle=orthogonalEdgeStyle;rounded=0;sketch=1;hachureGap=4;jiggle=2;curveFitting=1;orthogonalLoop=1;jettySize=auto;html=1;exitX=1;exitY=0.5;exitDx=0;exitDy=0;entryX=0;entryY=0.5;entryDx=0;entryDy=0;fontFamily=Architects Daughter;fontSource=https%3A%2F%2Ffonts.googleapis.com%2Fcss%3Ffamily%3DArchitects%2BDaughter;" edge="1" parent="3" source="eVJeflCza74l_O1Xs9eI-70" target="eVJeflCza74l_O1Xs9eI-74">
          <mxGeometry relative="1" as="geometry" />
        </mxCell>
        <mxCell id="eVJeflCza74l_O1Xs9eI-76" value="NO" style="edgeLabel;html=1;align=center;verticalAlign=middle;resizable=0;points=[];sketch=1;hachureGap=4;jiggle=2;curveFitting=1;fontFamily=Architects Daughter;fontSource=https%3A%2F%2Ffonts.googleapis.com%2Fcss%3Ffamily%3DArchitects%2BDaughter;" vertex="1" connectable="0" parent="eVJeflCza74l_O1Xs9eI-75">
          <mxGeometry x="-0.0128" y="-2" relative="1" as="geometry">
            <mxPoint x="1" as="offset" />
          </mxGeometry>
        </mxCell>
        <mxCell id="eVJeflCza74l_O1Xs9eI-105" value="" style="edgeStyle=orthogonalEdgeStyle;rounded=0;hachureGap=4;orthogonalLoop=1;jettySize=auto;html=1;fontFamily=Architects Daughter;fontSource=https%3A%2F%2Ffonts.googleapis.com%2Fcss%3Ffamily%3DArchitects%2BDaughter;" edge="1" parent="3" source="eVJeflCza74l_O1Xs9eI-70" target="eVJeflCza74l_O1Xs9eI-74">
          <mxGeometry relative="1" as="geometry" />
        </mxCell>
        <mxCell id="eVJeflCza74l_O1Xs9eI-70" value="Credenciales&#xa;válidas" style="rhombus;fillColor=#ffffc0;strokeColor=#ff0000;" vertex="1" parent="3">
          <mxGeometry x="102.67999999999995" y="162" width="99.5" height="68" as="geometry" />
        </mxCell>
        <mxCell id="eVJeflCza74l_O1Xs9eI-74" value="Muestra error en la &#xa;autenticación" style="" vertex="1" parent="3">
          <mxGeometry x="255.5" y="182" width="124.5" height="28" as="geometry" />
        </mxCell>
        <mxCell id="eVJeflCza74l_O1Xs9eI-82" style="edgeStyle=orthogonalEdgeStyle;rounded=0;hachureGap=4;orthogonalLoop=1;jettySize=auto;html=1;exitX=0.5;exitY=1;exitDx=0;exitDy=0;entryX=0.5;entryY=0;entryDx=0;entryDy=0;fontFamily=Architects Daughter;fontSource=https%3A%2F%2Ffonts.googleapis.com%2Fcss%3Ffamily%3DArchitects%2BDaughter;" edge="1" parent="3" source="eVJeflCza74l_O1Xs9eI-80" target="eVJeflCza74l_O1Xs9eI-81">
          <mxGeometry relative="1" as="geometry" />
        </mxCell>
        <mxCell id="eVJeflCza74l_O1Xs9eI-80" value="Verifica las actividades &#xa;completas" style="" vertex="1" parent="3">
          <mxGeometry x="120.82000000000005" y="285" width="153.87" height="28" as="geometry" />
        </mxCell>
        <mxCell id="eVJeflCza74l_O1Xs9eI-84" style="edgeStyle=orthogonalEdgeStyle;rounded=0;hachureGap=4;orthogonalLoop=1;jettySize=auto;html=1;exitX=1;exitY=0.5;exitDx=0;exitDy=0;entryX=0;entryY=0.5;entryDx=0;entryDy=0;fontFamily=Architects Daughter;fontSource=https%3A%2F%2Ffonts.googleapis.com%2Fcss%3Ffamily%3DArchitects%2BDaughter;" edge="1" parent="3" source="eVJeflCza74l_O1Xs9eI-81" target="eVJeflCza74l_O1Xs9eI-83">
          <mxGeometry relative="1" as="geometry" />
        </mxCell>
        <mxCell id="eVJeflCza74l_O1Xs9eI-85" value="NO" style="edgeLabel;html=1;align=center;verticalAlign=middle;resizable=0;points=[];sketch=1;hachureGap=4;jiggle=2;curveFitting=1;fontFamily=Architects Daughter;fontSource=https%3A%2F%2Ffonts.googleapis.com%2Fcss%3Ffamily%3DArchitects%2BDaughter;" vertex="1" connectable="0" parent="eVJeflCza74l_O1Xs9eI-84">
          <mxGeometry x="-0.1146" y="1" relative="1" as="geometry">
            <mxPoint x="1" as="offset" />
          </mxGeometry>
        </mxCell>
        <mxCell id="eVJeflCza74l_O1Xs9eI-86" style="edgeStyle=orthogonalEdgeStyle;rounded=0;hachureGap=4;orthogonalLoop=1;jettySize=auto;html=1;exitX=0.5;exitY=1;exitDx=0;exitDy=0;entryX=0.5;entryY=0;entryDx=0;entryDy=0;fontFamily=Architects Daughter;fontSource=https%3A%2F%2Ffonts.googleapis.com%2Fcss%3Ffamily%3DArchitects%2BDaughter;" edge="1" parent="3" source="eVJeflCza74l_O1Xs9eI-81" target="eVJeflCza74l_O1Xs9eI-64">
          <mxGeometry relative="1" as="geometry" />
        </mxCell>
        <mxCell id="eVJeflCza74l_O1Xs9eI-87" value="SI" style="edgeLabel;html=1;align=center;verticalAlign=middle;resizable=0;points=[];sketch=1;hachureGap=4;jiggle=2;curveFitting=1;fontFamily=Architects Daughter;fontSource=https%3A%2F%2Ffonts.googleapis.com%2Fcss%3Ffamily%3DArchitects%2BDaughter;" vertex="1" connectable="0" parent="eVJeflCza74l_O1Xs9eI-86">
          <mxGeometry x="-0.0934" y="-1" relative="1" as="geometry">
            <mxPoint y="-1" as="offset" />
          </mxGeometry>
        </mxCell>
        <mxCell id="eVJeflCza74l_O1Xs9eI-81" value="Actividades &#xa;completas" style="rhombus;fillColor=#ffffc0;strokeColor=#ff0000;" vertex="1" parent="3">
          <mxGeometry x="102.68" y="362" width="99.5" height="68" as="geometry" />
        </mxCell>
        <mxCell id="eVJeflCza74l_O1Xs9eI-64" value="Navega al módulo de &#xa;informes" style="" vertex="1" parent="3">
          <mxGeometry x="75.5" y="482" width="153.87" height="28" as="geometry" />
        </mxCell>
        <mxCell id="eVJeflCza74l_O1Xs9eI-83" value="Muestra error y solicita &#xa;completar actividades" style="" vertex="1" parent="3">
          <mxGeometry x="245.5" y="382" width="124.5" height="28" as="geometry" />
        </mxCell>
        <mxCell id="4" value="Módulo de informes" style="swimlane;whiteSpace=wrap;startSize=23;fillColor=#f8cecc;strokeColor=#b85450;" parent="1" vertex="1">
          <mxGeometry x="777.5" y="20" width="290" height="802" as="geometry" />
        </mxCell>
        <mxCell id="eVJeflCza74l_O1Xs9eI-103" style="edgeStyle=orthogonalEdgeStyle;rounded=0;hachureGap=4;orthogonalLoop=1;jettySize=auto;html=1;exitX=0.5;exitY=1;exitDx=0;exitDy=0;entryX=0.5;entryY=0;entryDx=0;entryDy=0;fontFamily=Architects Daughter;fontSource=https%3A%2F%2Ffonts.googleapis.com%2Fcss%3Ffamily%3DArchitects%2BDaughter;" edge="1" parent="4" source="eVJeflCza74l_O1Xs9eI-91" target="eVJeflCza74l_O1Xs9eI-92">
          <mxGeometry relative="1" as="geometry" />
        </mxCell>
        <mxCell id="eVJeflCza74l_O1Xs9eI-91" value="Genera informe final" style="" vertex="1" parent="4">
          <mxGeometry x="68.06999999999994" y="482" width="153.87" height="28" as="geometry" />
        </mxCell>
        <mxCell id="eVJeflCza74l_O1Xs9eI-102" style="edgeStyle=orthogonalEdgeStyle;rounded=0;hachureGap=4;orthogonalLoop=1;jettySize=auto;html=1;exitX=0.5;exitY=1;exitDx=0;exitDy=0;entryX=0.5;entryY=0;entryDx=0;entryDy=0;fontFamily=Architects Daughter;fontSource=https%3A%2F%2Ffonts.googleapis.com%2Fcss%3Ffamily%3DArchitects%2BDaughter;" edge="1" parent="4" source="eVJeflCza74l_O1Xs9eI-92" target="eVJeflCza74l_O1Xs9eI-94">
          <mxGeometry relative="1" as="geometry" />
        </mxCell>
        <mxCell id="eVJeflCza74l_O1Xs9eI-92" value="Verifica errores en &#xa;informe" style="" vertex="1" parent="4">
          <mxGeometry x="68.06999999999994" y="542" width="153.87" height="28" as="geometry" />
        </mxCell>
        <mxCell id="eVJeflCza74l_O1Xs9eI-100" style="edgeStyle=orthogonalEdgeStyle;rounded=0;hachureGap=4;orthogonalLoop=1;jettySize=auto;html=1;exitX=0.5;exitY=1;exitDx=0;exitDy=0;entryX=0.5;entryY=0;entryDx=0;entryDy=0;fontFamily=Architects Daughter;fontSource=https%3A%2F%2Ffonts.googleapis.com%2Fcss%3Ffamily%3DArchitects%2BDaughter;" edge="1" parent="4" source="eVJeflCza74l_O1Xs9eI-94" target="eVJeflCza74l_O1Xs9eI-99">
          <mxGeometry relative="1" as="geometry" />
        </mxCell>
        <mxCell id="eVJeflCza74l_O1Xs9eI-101" value="NO" style="edgeLabel;html=1;align=center;verticalAlign=middle;resizable=0;points=[];sketch=1;hachureGap=4;jiggle=2;curveFitting=1;fontFamily=Architects Daughter;fontSource=https%3A%2F%2Ffonts.googleapis.com%2Fcss%3Ffamily%3DArchitects%2BDaughter;" vertex="1" connectable="0" parent="eVJeflCza74l_O1Xs9eI-100">
          <mxGeometry x="-0.2455" y="4" relative="1" as="geometry">
            <mxPoint as="offset" />
          </mxGeometry>
        </mxCell>
        <mxCell id="eVJeflCza74l_O1Xs9eI-94" value="Informe &#xa;Correcto" style="rhombus;fillColor=#ffffc0;strokeColor=#ff0000;" vertex="1" parent="4">
          <mxGeometry x="95.25" y="630" width="99.5" height="68" as="geometry" />
        </mxCell>
        <mxCell id="eVJeflCza74l_O1Xs9eI-99" value="Muestra error y solicita &#xa;corrección" style="" vertex="1" parent="4">
          <mxGeometry x="82.75" y="762" width="124.5" height="28" as="geometry" />
        </mxCell>
        <mxCell id="eVJeflCza74l_O1Xs9eI-71" style="edgeStyle=orthogonalEdgeStyle;rounded=0;hachureGap=4;orthogonalLoop=1;jettySize=auto;html=1;exitX=0;exitY=0.5;exitDx=0;exitDy=0;entryX=1;entryY=0.5;entryDx=0;entryDy=0;fontFamily=Architects Daughter;fontSource=https%3A%2F%2Ffonts.googleapis.com%2Fcss%3Ffamily%3DArchitects%2BDaughter;" edge="1" parent="1" source="eVJeflCza74l_O1Xs9eI-70" target="eVJeflCza74l_O1Xs9eI-69">
          <mxGeometry relative="1" as="geometry" />
        </mxCell>
        <mxCell id="eVJeflCza74l_O1Xs9eI-72" value="SI" style="edgeLabel;html=1;align=center;verticalAlign=middle;resizable=0;points=[];sketch=1;hachureGap=4;jiggle=2;curveFitting=1;fontFamily=Architects Daughter;fontSource=https%3A%2F%2Ffonts.googleapis.com%2Fcss%3Ffamily%3DArchitects%2BDaughter;" vertex="1" connectable="0" parent="eVJeflCza74l_O1Xs9eI-71">
          <mxGeometry x="-0.1566" y="2" relative="1" as="geometry">
            <mxPoint as="offset" />
          </mxGeometry>
        </mxCell>
        <mxCell id="eVJeflCza74l_O1Xs9eI-77" style="edgeStyle=orthogonalEdgeStyle;rounded=0;hachureGap=4;orthogonalLoop=1;jettySize=auto;html=1;exitX=1;exitY=0.5;exitDx=0;exitDy=0;entryX=0;entryY=0.5;entryDx=0;entryDy=0;fontFamily=Architects Daughter;fontSource=https%3A%2F%2Ffonts.googleapis.com%2Fcss%3Ffamily%3DArchitects%2BDaughter;" edge="1" parent="1" source="eVJeflCza74l_O1Xs9eI-66" target="eVJeflCza74l_O1Xs9eI-68">
          <mxGeometry relative="1" as="geometry" />
        </mxCell>
        <mxCell id="eVJeflCza74l_O1Xs9eI-88" style="edgeStyle=orthogonalEdgeStyle;rounded=0;hachureGap=4;orthogonalLoop=1;jettySize=auto;html=1;exitX=1;exitY=0.5;exitDx=0;exitDy=0;entryX=0;entryY=0.5;entryDx=0;entryDy=0;fontFamily=Architects Daughter;fontSource=https%3A%2F%2Ffonts.googleapis.com%2Fcss%3Ffamily%3DArchitects%2BDaughter;" edge="1" parent="1" source="eVJeflCza74l_O1Xs9eI-79" target="eVJeflCza74l_O1Xs9eI-80">
          <mxGeometry relative="1" as="geometry" />
        </mxCell>
        <mxCell id="eVJeflCza74l_O1Xs9eI-96" style="edgeStyle=orthogonalEdgeStyle;rounded=0;hachureGap=4;orthogonalLoop=1;jettySize=auto;html=1;exitX=0;exitY=0.5;exitDx=0;exitDy=0;entryX=1;entryY=0.5;entryDx=0;entryDy=0;fontFamily=Architects Daughter;fontSource=https%3A%2F%2Ffonts.googleapis.com%2Fcss%3Ffamily%3DArchitects%2BDaughter;" edge="1" parent="1" source="eVJeflCza74l_O1Xs9eI-94" target="eVJeflCza74l_O1Xs9eI-95">
          <mxGeometry relative="1" as="geometry" />
        </mxCell>
        <mxCell id="eVJeflCza74l_O1Xs9eI-97" value="SI" style="edgeLabel;html=1;align=center;verticalAlign=middle;resizable=0;points=[];sketch=1;hachureGap=4;jiggle=2;curveFitting=1;fontFamily=Architects Daughter;fontSource=https%3A%2F%2Ffonts.googleapis.com%2Fcss%3Ffamily%3DArchitects%2BDaughter;" vertex="1" connectable="0" parent="eVJeflCza74l_O1Xs9eI-96">
          <mxGeometry x="-0.0255" y="2" relative="1" as="geometry">
            <mxPoint x="1" as="offset" />
          </mxGeometry>
        </mxCell>
        <mxCell id="eVJeflCza74l_O1Xs9eI-104" style="edgeStyle=orthogonalEdgeStyle;rounded=0;hachureGap=4;orthogonalLoop=1;jettySize=auto;html=1;exitX=1;exitY=0.5;exitDx=0;exitDy=0;entryX=0;entryY=0.5;entryDx=0;entryDy=0;fontFamily=Architects Daughter;fontSource=https%3A%2F%2Ffonts.googleapis.com%2Fcss%3Ffamily%3DArchitects%2BDaughter;" edge="1" parent="1" source="eVJeflCza74l_O1Xs9eI-64" target="eVJeflCza74l_O1Xs9eI-91">
          <mxGeometry relative="1" as="geometry" />
        </mxCell>
      </root>
    </mxGraphModel>
  </diagram>
</mxfile>
